<?xml version="1.0" standalone="no"?>
<!DOCTYPE svg PUBLIC "-//W3C//DTD SVG 20010904//EN"
 "http://www.w3.org/TR/2001/REC-SVG-20010904/DTD/svg10.dtd">
<svg version="1.0" xmlns="http://www.w3.org/2000/svg"
 width="450.000000pt" height="450.000000pt" viewBox="0 0 450.000000 450.000000"
 preserveAspectRatio="xMidYMid meet">

<g transform="translate(0.000000,450.000000) scale(0.100000,-0.100000)"
fill="#000000" stroke="none">
<path d="M0 2250 l0 -2250 2250 0 2250 0 0 2250 0 2250 -2250 0 -2250 0 0
-2250z m2150 411 c0 -5 -70 -97 -155 -205 -85 -108 -155 -201 -155 -206 0 -6
68 -97 151 -202 83 -105 153 -197 156 -204 4 -11 -11 -14 -73 -14 l-79 0 -124
156 c-69 86 -139 165 -155 175 -28 17 -54 19 -271 19 -133 0 -256 5 -277 10
-45 13 -88 61 -88 101 l0 29 303 0 c277 0 305 2 333 19 16 10 86 89 155 175
l124 156 78 0 c42 0 77 -4 77 -9z m1380 -27 c59 -34 112 -100 130 -162 5 -20
10 -94 10 -164 l0 -128 -595 0 -595 0 0 -137 c0 -76 -3 -155 -6 -175 l-7 -38
-63 0 -64 0 2 243 3 242 595 5 595 5 0 57 c0 62 -17 94 -69 132 -27 21 -40 21
-552 24 -288 2 -524 7 -524 11 0 25 92 94 150 112 14 4 230 7 480 6 l455 -2
55 -31z m-2640 -11 c68 -77 70 -86 70 -410 0 -187 -4 -300 -11 -315 -14 -30
-51 -57 -89 -64 l-30 -6 0 416 c0 459 -2 450 60 379z"/>
</g>
</svg>
